<svg version="1.1" id="Layer_1" xmlns="http://www.w3.org/2000/svg" xmlns:xlink="http://www.w3.org/1999/xlink" x="0px" y="0px"
	 width="100%" viewBox="0 0 500 500" enable-background="new 0 0 500 500" xml:space="preserve">
<path fill="#C1FF72" opacity="1.000000" stroke="none" 
	d="
M232.707672,52.176632 
	C242.408798,51.609520 252.158630,50.146168 261.800415,50.670380 
	C279.399872,51.627251 293.620117,61.606411 308.302185,70.087082 
	C342.903168,90.073334 377.723816,109.689209 412.068665,130.105789 
	C439.112061,146.181946 452.732788,170.681854 452.929169,202.116547 
	C453.214478,247.780121 453.174011,293.447662 452.944183,339.111847 
	C452.781769,371.381134 437.826904,395.551086 410.384369,411.716156 
	C372.083893,434.277130 333.439117,456.254730 294.891296,478.394318 
	C265.875488,495.059265 236.781006,495.263580 207.678009,478.484680 
	C169.455185,456.447845 131.246216,434.386566 92.958366,412.463135 
	C69.758362,399.178955 55.261246,379.698059 50.407948,353.347015 
	C49.420349,347.984833 49.186016,342.422821 49.173897,336.951691 
	C49.077953,293.619812 49.409447,250.285095 49.029137,206.956360 
	C48.716667,171.356766 63.528534,144.873566 94.518562,127.352623 
	C110.604340,118.258141 126.595642,108.996567 143.365875,99.783051 
	C170.652222,107.845406 197.151245,116.108482 223.773895,123.952026 
	C237.119095,127.883781 247.559296,117.348526 244.435974,103.633560 
	C240.529694,86.480537 236.617386,69.328880 232.707672,52.176632 
M235.501602,170.997147 
	C252.871887,160.906311 270.277802,150.876038 287.596344,140.697174 
	C295.398041,136.111771 297.948273,126.967781 293.770142,119.624352 
	C289.510803,112.138153 280.581665,109.688080 272.564941,114.005417 
	C267.304688,116.838318 262.197815,119.956543 257.027405,122.955833 
	C242.810135,131.203079 228.559418,139.393555 214.396149,147.732544 
	C207.899460,151.557632 205.287247,157.793808 206.900070,164.666153 
	C208.580353,171.825882 213.285995,176.394211 221.110184,176.084091 
	C225.743286,175.900436 230.268723,173.000473 235.501602,170.997147 
z"/>
<path fill="#010101" opacity="1.000000" stroke="none" 
	d="
M232.465820,51.894951 
	C236.617386,69.328880 240.529694,86.480537 244.435974,103.633560 
	C247.559296,117.348526 237.119095,127.883781 223.773895,123.952026 
	C197.151245,116.108482 170.652222,107.845406 143.730789,99.660530 
	C132.903717,91.202278 132.281982,80.752846 141.949738,71.666115 
	C160.603958,54.133034 179.326004,36.671356 198.112717,19.280285 
	C208.674316,9.503294 223.047226,13.832396 226.689713,27.871122 
	C228.729919,35.734459 230.391678,43.695988 232.465820,51.894951 
z"/>
<path fill="#010201" opacity="1.000000" stroke="none" 
	d="
M235.172089,171.159531 
	C230.268723,173.000473 225.743286,175.900436 221.110184,176.084091 
	C213.285995,176.394211 208.580353,171.825882 206.900070,164.666153 
	C205.287247,157.793808 207.899460,151.557632 214.396149,147.732544 
	C228.559418,139.393555 242.810135,131.203079 257.027405,122.955833 
	C262.197815,119.956543 267.304688,116.838318 272.564941,114.005417 
	C280.581665,109.688080 289.510803,112.138153 293.770142,119.624352 
	C297.948273,126.967781 295.398041,136.111771 287.596344,140.697174 
	C270.277802,150.876038 252.871887,160.906311 235.172089,171.159531 
z"/>
</svg>