<svg xmlns="http://www.w3.org/2000/svg" width="500" height="500" viewBox="0 0 500 500" version="1.1"><path d="M 202.304 14.792 C 197.074 17.587, 137.308 73.846, 135.834 77.362 C 132.978 84.172, 135.251 92.870, 141.008 97.160 C 142.388 98.188, 161.288 104.472, 183.008 111.123 C 227.775 124.833, 231.133 125.418, 237.431 120.618 C 241.558 117.472, 244 112.783, 244 108.001 C 244 105.161, 228.793 38.968, 225.464 27.317 C 222.102 15.551, 211.556 9.848, 202.304 14.792 M 271.958 112.883 C 258.107 120.306, 211.978 147.653, 209.762 149.754 C 205.156 154.122, 204.411 162.694, 208.117 168.689 C 212.326 175.500, 220.990 177.110, 229.541 172.671 C 232.269 171.256, 247.081 162.753, 262.457 153.777 C 293.344 135.745, 294.385 134.834, 294.385 125.824 C 294.385 114.624, 282.021 107.489, 271.958 112.883" stroke="none" fill="#040504" fill-rule="evenodd"/><path d="M 178.437 35.250 L 175.500 38.500 178.750 35.563 C 181.779 32.825, 182.460 32, 181.687 32 C 181.515 32, 180.052 33.462, 178.437 35.250 M 162.437 50.250 L 159.500 53.500 162.750 50.563 C 165.779 47.825, 166.460 47, 165.687 47 C 165.515 47, 164.052 48.462, 162.437 50.250 M 240.592 49.213 C 235.692 49.636, 231.568 50.100, 231.428 50.242 C 231.287 50.384, 234.045 62.650, 237.557 77.500 C 241.069 92.350, 243.955 105.977, 243.971 107.782 C 244.015 112.743, 241.636 117.413, 237.434 120.618 C 231.221 125.357, 228.174 124.854, 186.500 112.198 C 166.150 106.018, 147.794 100.324, 145.710 99.545 L 141.919 98.129 114.396 114.060 C 83.071 132.192, 79.969 134.206, 73.267 140.757 C 63.036 150.759, 55.396 163.450, 50.845 178 L 48.500 185.500 48.500 268.500 C 48.500 344.690, 48.645 352.023, 50.262 357.879 C 52.661 366.560, 56.130 374.938, 60.145 381.743 C 63.988 388.255, 77.350 402.224, 84 406.681 C 92.614 412.455, 207.556 478.369, 215.607 482.152 C 236.437 491.941, 259.189 492.597, 280.596 484.025 C 286.473 481.672, 377.117 430.274, 408.337 411.591 C 428.736 399.385, 440.919 384.807, 448.235 363.851 L 451.500 354.500 451.778 272.210 C 452.049 192.009, 452.003 189.698, 449.990 181.210 C 445.999 164.387, 435.502 147.394, 422.481 136.679 C 419.019 133.831, 407.258 126.351, 396.344 120.057 C 304.445 67.063, 285.625 56.416, 279.500 53.954 C 268.385 49.486, 255.536 47.920, 240.592 49.213 M 271.958 112.883 C 258.107 120.306, 211.978 147.653, 209.762 149.754 C 205.156 154.122, 204.411 162.694, 208.117 168.689 C 212.326 175.500, 220.990 177.110, 229.541 172.671 C 232.269 171.256, 247.081 162.753, 262.457 153.777 C 293.344 135.745, 294.385 134.834, 294.385 125.824 C 294.385 114.624, 282.021 107.489, 271.958 112.883" stroke="none" fill="#1cd463" fill-rule="evenodd"/></svg>